<svg width="49" height="49" viewBox="0 0 49 49" fill="none" xmlns="http://www.w3.org/2000/svg">
<path d="M28.447 42.6168H20.447V45.6168H28.447V42.6168ZM5.94702 28.1168V20.1168H2.94702V28.1168H5.94702ZM42.947 27.2426V28.1168H45.947V27.2426H42.947ZM30.2294 9.33904L38.147 16.4648L40.1538 14.2349L32.2364 7.10916L30.2294 9.33904ZM45.947 27.2426C45.947 23.8658 45.9772 21.7278 45.1252 19.8147L42.3848 21.0352C42.9168 22.2298 42.947 23.6008 42.947 27.2426H45.947ZM38.147 16.4648C40.8538 18.901 41.8528 19.8408 42.3848 21.0352L45.1252 19.8147C44.2732 17.9016 42.6638 16.4939 40.1538 14.2349L38.147 16.4648ZM20.5066 5.6168C23.6702 5.6168 24.864 5.63996 25.928 6.04826L27.0028 3.2474C25.2992 2.59364 23.443 2.6168 20.5066 2.6168V5.6168ZM32.2364 7.10916C30.0644 5.15436 28.7064 3.90108 27.0028 3.2474L25.928 6.04826C26.9924 6.45666 27.89 7.23352 30.2294 9.33904L32.2364 7.10916ZM20.447 42.6168C16.6334 42.6168 13.924 42.6136 11.8687 42.3372C9.85654 42.0668 8.69724 41.5594 7.85082 40.713L5.7295 42.8344C7.22624 44.331 9.12412 44.9952 11.469 45.3106C13.7707 45.62 16.7182 45.6168 20.447 45.6168V42.6168ZM2.94702 28.1168C2.94702 31.8456 2.94384 34.7932 3.25328 37.0948C3.56854 39.4396 4.23278 41.3376 5.7295 42.8344L7.85082 40.713C7.0044 39.8666 6.49706 38.7072 6.22654 36.6952C5.9502 34.6398 5.94702 31.9304 5.94702 28.1168H2.94702ZM28.447 45.6168C32.1758 45.6168 35.1234 45.62 37.425 45.3106C39.7698 44.9952 41.6678 44.331 43.1646 42.8344L41.0432 40.713C40.1968 41.5594 39.0374 42.0668 37.0254 42.3372C34.97 42.6136 32.2606 42.6168 28.447 42.6168V45.6168ZM42.947 28.1168C42.947 31.9304 42.9438 34.6398 42.6674 36.6952C42.397 38.7072 41.8896 39.8666 41.0432 40.713L43.1646 42.8344C44.6612 41.3376 45.3254 39.4396 45.6408 37.0948C45.9502 34.7932 45.947 31.8456 45.947 28.1168H42.947ZM5.94702 20.1168C5.94702 16.3032 5.9502 13.5938 6.22654 11.5385C6.49706 9.52632 7.0044 8.36702 7.85082 7.5206L5.7295 5.39928C4.23278 6.89602 3.56854 8.7939 3.25328 11.1388C2.94384 13.4404 2.94702 16.388 2.94702 20.1168H5.94702ZM20.5066 2.6168C16.7578 2.6168 13.7959 2.61364 11.4848 2.92294C9.13166 3.23788 7.2274 3.9014 5.7295 5.39928L7.85082 7.5206C8.69608 6.67536 9.85894 6.1673 11.8827 5.89644C13.9485 5.61996 16.6732 5.6168 20.5066 5.6168V2.6168Z" fill="#FF5C49"/>
<path d="M26.447 5.1167V10.1167C26.447 14.8307 26.447 17.1878 27.9114 18.6522C29.376 20.1167 31.733 20.1167 36.447 20.1167H44.447" stroke="#FF5C49" stroke-width="3"/>
<path d="M34.447 32.1167C35.5516 32.1167 36.447 30.7736 36.447 29.1167C36.447 27.4598 35.5516 26.1167 34.447 26.1167C33.3425 26.1167 32.447 27.4598 32.447 29.1167C32.447 30.7736 33.3425 32.1167 34.447 32.1167Z" fill="#FF5C49"/>
<path d="M18.447 35.1167C22.0804 37.5389 26.8136 37.5389 30.447 35.1167" stroke="#FF5C49" stroke-width="3" stroke-linecap="round" stroke-linejoin="round"/>
<path d="M14.447 32.1167C15.5516 32.1167 16.447 30.7736 16.447 29.1167C16.447 27.4598 15.5516 26.1167 14.447 26.1167C13.3425 26.1167 12.447 27.4598 12.447 29.1167C12.447 30.7736 13.3425 32.1167 14.447 32.1167Z" fill="#FF5C49"/>
</svg>
