<svg width="138" height="44" viewBox="0 0 138 44" fill="none" xmlns="http://www.w3.org/2000/svg">
<path d="M17.4126 25.992C18.6709 26.3074 20.0985 26.3076 21.5351 25.9226C22.9717 25.5377 24.2079 24.8237 25.14 23.9214" stroke="#3F3E3B" stroke-width="1.5" stroke-linecap="round"/>
<path d="M23.3976 21.2813C23.9311 21.1384 24.1897 20.3738 23.9753 19.5736C23.7609 18.7734 23.1546 18.2406 22.6212 18.3835C22.0877 18.5265 21.8291 19.291 22.0435 20.0912C22.2579 20.8914 22.8642 21.4242 23.3976 21.2813Z" fill="#3F3E3B"/>
<path d="M17.6022 22.835C18.1357 22.6921 18.3944 21.9275 18.1799 21.1273C17.9655 20.3271 17.3593 19.7943 16.8258 19.9373C16.2923 20.0802 16.0337 20.8448 16.2481 21.645C16.4625 22.4452 17.0688 22.978 17.6022 22.835Z" fill="#3F3E3B"/>
<path d="M11.7036 24.4154C10.5925 20.2687 10.0369 18.1953 10.98 16.5619C11.923 14.9286 13.9963 14.373 18.143 13.2619C22.2897 12.1508 24.363 11.5953 25.9964 12.5383C27.6298 13.4813 28.1853 15.5547 29.2964 19.7014C30.4075 23.8481 30.9631 25.9214 30.0201 27.5548C29.077 29.1882 27.0037 29.7437 22.857 30.8548C18.7103 31.9659 16.637 32.5215 15.0036 31.5785C13.3702 30.6354 12.8147 28.5621 11.7036 24.4154Z" stroke="#3F3E3B" stroke-width="1.5"/>
<path d="M21.5 26.0587L21.978 27.0325C22.3393 27.7687 23.2249 28.0781 23.9661 27.7272C24.7223 27.3693 25.0394 26.4618 24.6708 25.7107L24.2115 24.7751" stroke="#3F3E3B" stroke-width="1.5"/>
<path d="M43.0776 28.6983C42.8109 28.6983 42.6042 28.625 42.4576 28.4783C42.3242 28.3183 42.2576 28.105 42.2576 27.8383V15.2983C42.2576 15.0183 42.3309 14.8117 42.4776 14.6783C42.6242 14.5317 42.8309 14.4583 43.0976 14.4583H47.8376C49.3442 14.4583 50.5042 14.8317 51.3176 15.5783C52.1309 16.3117 52.5376 17.3517 52.5376 18.6983C52.5376 20.0317 52.1309 21.0717 51.3176 21.8183C50.5042 22.565 49.3442 22.9383 47.8376 22.9383H43.8976V27.8383C43.8976 28.105 43.8309 28.3183 43.6976 28.4783C43.5642 28.625 43.3576 28.6983 43.0776 28.6983ZM43.8976 21.5583H47.6376C48.7176 21.5583 49.5309 21.3183 50.0776 20.8383C50.6376 20.345 50.9176 19.6317 50.9176 18.6983C50.9176 17.7517 50.6376 17.0383 50.0776 16.5583C49.5309 16.065 48.7176 15.8183 47.6376 15.8183H43.8976V21.5583ZM57.2655 28.7383C56.5989 28.7383 55.9989 28.6117 55.4655 28.3583C54.9455 28.0917 54.5322 27.7317 54.2255 27.2783C53.9189 26.825 53.7655 26.3183 53.7655 25.7583C53.7655 25.0383 53.9455 24.4717 54.3055 24.0583C54.6789 23.645 55.2855 23.3517 56.1255 23.1783C56.9789 23.005 58.1389 22.9183 59.6055 22.9183H60.5055V23.9783H59.6255C58.5455 23.9783 57.6922 24.0317 57.0655 24.1383C56.4522 24.2317 56.0189 24.3983 55.7655 24.6383C55.5255 24.8783 55.4055 25.2183 55.4055 25.6583C55.4055 26.205 55.5922 26.6517 55.9655 26.9983C56.3522 27.345 56.8722 27.5183 57.5255 27.5183C58.0589 27.5183 58.5255 27.3917 58.9255 27.1383C59.3389 26.885 59.6589 26.5383 59.8855 26.0983C60.1255 25.6583 60.2455 25.1517 60.2455 24.5783V22.2983C60.2455 21.4717 60.0789 20.8783 59.7455 20.5183C59.4122 20.145 58.8655 19.9583 58.1055 19.9583C57.6389 19.9583 57.1722 20.0183 56.7055 20.1383C56.2389 20.2583 55.7455 20.4517 55.2255 20.7183C55.0389 20.8117 54.8789 20.845 54.7455 20.8183C54.6122 20.7783 54.5055 20.705 54.4255 20.5983C54.3455 20.4917 54.2989 20.3717 54.2855 20.2383C54.2722 20.0917 54.2989 19.9517 54.3655 19.8183C54.4455 19.685 54.5655 19.5783 54.7255 19.4983C55.3122 19.205 55.8922 18.9917 56.4655 18.8583C57.0389 18.725 57.5855 18.6583 58.1055 18.6583C58.9455 18.6583 59.6389 18.7983 60.1855 19.0783C60.7322 19.345 61.1389 19.7583 61.4055 20.3183C61.6722 20.865 61.8055 21.5717 61.8055 22.4383V27.8583C61.8055 28.125 61.7389 28.3317 61.6055 28.4783C61.4855 28.625 61.3055 28.6983 61.0655 28.6983C60.8122 28.6983 60.6189 28.625 60.4855 28.4783C60.3522 28.3317 60.2855 28.125 60.2855 27.8583V26.2983H60.4655C60.3589 26.805 60.1522 27.2383 59.8455 27.5983C59.5522 27.9583 59.1855 28.2383 58.7455 28.4383C58.3055 28.6383 57.8122 28.7383 57.2655 28.7383ZM68.711 28.7383C67.951 28.7383 67.311 28.605 66.791 28.3383C66.2843 28.0583 65.9043 27.6583 65.651 27.1383C65.3977 26.605 65.271 25.9583 65.271 25.1983V20.0983H63.931C63.7043 20.0983 63.531 20.045 63.411 19.9383C63.291 19.8183 63.231 19.6583 63.231 19.4583C63.231 19.2583 63.291 19.105 63.411 18.9983C63.531 18.8917 63.7043 18.8383 63.931 18.8383H65.271V16.5383C65.271 16.2717 65.3443 16.0717 65.491 15.9383C65.6377 15.7917 65.8377 15.7183 66.091 15.7183C66.3443 15.7183 66.5377 15.7917 66.671 15.9383C66.8177 16.0717 66.891 16.2717 66.891 16.5383V18.8383H69.411C69.6377 18.8383 69.811 18.8917 69.931 18.9983C70.051 19.105 70.111 19.2583 70.111 19.4583C70.111 19.6583 70.051 19.8183 69.931 19.9383C69.811 20.045 69.6377 20.0983 69.411 20.0983H66.891V25.0383C66.891 25.7983 67.051 26.3783 67.371 26.7783C67.691 27.165 68.211 27.3583 68.931 27.3583C69.1843 27.3583 69.3977 27.3317 69.571 27.2783C69.7577 27.225 69.911 27.1983 70.031 27.1983C70.151 27.185 70.251 27.225 70.331 27.3183C70.411 27.4117 70.451 27.5717 70.451 27.7983C70.451 27.9583 70.4177 28.105 70.351 28.2383C70.2977 28.3717 70.1977 28.465 70.051 28.5183C69.891 28.5717 69.6777 28.6183 69.411 28.6583C69.1577 28.7117 68.9243 28.7383 68.711 28.7383ZM72.6232 28.6983C72.3565 28.6983 72.1499 28.625 72.0032 28.4783C71.8699 28.3317 71.8032 28.125 71.8032 27.8583V19.5183C71.8032 19.2517 71.8699 19.0517 72.0032 18.9183C72.1365 18.7717 72.3299 18.6983 72.5832 18.6983C72.8365 18.6983 73.0299 18.7717 73.1632 18.9183C73.3099 19.0517 73.3832 19.2517 73.3832 19.5183V21.1383H73.1832C73.3965 20.3517 73.8032 19.745 74.4032 19.3183C75.0032 18.8917 75.7432 18.665 76.6232 18.6383C76.8232 18.625 76.9832 18.6717 77.1032 18.7783C77.2232 18.8717 77.2899 19.0383 77.3032 19.2783C77.3165 19.505 77.2632 19.685 77.1432 19.8183C77.0232 19.9517 76.8365 20.0317 76.5832 20.0583L76.2632 20.0983C75.3565 20.1783 74.6565 20.4717 74.1632 20.9783C73.6832 21.4717 73.4432 22.1517 73.4432 23.0183V27.8583C73.4432 28.125 73.3699 28.3317 73.2232 28.4783C73.0899 28.625 72.8899 28.6983 72.6232 28.6983ZM82.894 28.7383C81.9473 28.7383 81.1273 28.5317 80.434 28.1183C79.7407 27.705 79.2007 27.125 78.814 26.3783C78.4407 25.6183 78.254 24.725 78.254 23.6983C78.254 22.925 78.3607 22.2317 78.574 21.6183C78.7873 20.9917 79.1007 20.4583 79.514 20.0183C79.9273 19.5783 80.414 19.245 80.974 19.0183C81.5473 18.7783 82.1873 18.6583 82.894 18.6583C83.8407 18.6583 84.6607 18.865 85.354 19.2783C86.0473 19.6917 86.5807 20.2783 86.954 21.0383C87.3407 21.785 87.534 22.6717 87.534 23.6983C87.534 24.4717 87.4273 25.165 87.214 25.7783C87.0007 26.3917 86.6873 26.925 86.274 27.3783C85.8607 27.8183 85.3673 28.1583 84.794 28.3983C84.234 28.625 83.6007 28.7383 82.894 28.7383ZM82.894 27.4383C83.494 27.4383 84.0207 27.2917 84.474 26.9983C84.9273 26.705 85.274 26.2783 85.514 25.7183C85.7673 25.1583 85.894 24.485 85.894 23.6983C85.894 22.485 85.6207 21.5583 85.074 20.9183C84.5407 20.2783 83.814 19.9583 82.894 19.9583C82.2807 19.9583 81.7473 20.105 81.294 20.3983C80.854 20.6783 80.5073 21.0983 80.254 21.6583C80.014 22.205 79.894 22.885 79.894 23.6983C79.894 24.8983 80.1673 25.825 80.714 26.4783C81.2607 27.1183 81.9873 27.4383 82.894 27.4383ZM94.0873 28.7383C93.1139 28.7383 92.2739 28.525 91.5673 28.0983C90.8606 27.6717 90.3139 27.0783 89.9273 26.3183C89.5539 25.545 89.3673 24.6517 89.3673 23.6383C89.3673 22.865 89.4739 22.1717 89.6873 21.5583C89.9006 20.945 90.2139 20.425 90.6273 19.9983C91.0406 19.5583 91.5339 19.225 92.1073 18.9983C92.6939 18.7717 93.3539 18.6583 94.0873 18.6583C94.5673 18.6583 95.0673 18.7317 95.5873 18.8783C96.1073 19.025 96.5806 19.2783 97.0073 19.6383C97.1406 19.7317 97.2273 19.845 97.2673 19.9783C97.3073 20.1117 97.3073 20.245 97.2673 20.3783C97.2273 20.4983 97.1606 20.605 97.0673 20.6983C96.9739 20.7783 96.8539 20.825 96.7073 20.8383C96.5739 20.8517 96.4339 20.805 96.2873 20.6983C95.9406 20.4317 95.5873 20.245 95.2273 20.1383C94.8673 20.0317 94.5206 19.9783 94.1873 19.9783C93.6673 19.9783 93.2139 20.065 92.8273 20.2383C92.4406 20.3983 92.1139 20.6317 91.8473 20.9383C91.5806 21.245 91.3739 21.625 91.2273 22.0783C91.0939 22.5317 91.0273 23.0583 91.0273 23.6583C91.0273 24.8183 91.3006 25.7383 91.8473 26.4183C92.3939 27.085 93.1739 27.4183 94.1873 27.4183C94.5206 27.4183 94.8606 27.365 95.2073 27.2583C95.5673 27.1517 95.9273 26.965 96.2873 26.6983C96.4339 26.5917 96.5739 26.545 96.7073 26.5583C96.8406 26.5717 96.9539 26.625 97.0473 26.7183C97.1406 26.7983 97.2006 26.905 97.2273 27.0383C97.2673 27.1717 97.2673 27.305 97.2273 27.4383C97.1873 27.5583 97.1006 27.665 96.9673 27.7583C96.5406 28.105 96.0739 28.3583 95.5673 28.5183C95.0606 28.665 94.5673 28.7383 94.0873 28.7383ZM100.025 28.6583C99.7584 28.6583 99.5584 28.585 99.4251 28.4383C99.2917 28.2783 99.2251 28.0583 99.2251 27.7783V19.5983C99.2251 19.3183 99.2917 19.105 99.4251 18.9583C99.5584 18.8117 99.7584 18.7383 100.025 18.7383C100.278 18.7383 100.478 18.8117 100.625 18.9583C100.772 19.105 100.845 19.3183 100.845 19.5983V27.7783C100.845 28.0583 100.772 28.2783 100.625 28.4383C100.492 28.585 100.292 28.6583 100.025 28.6583ZM100.025 16.4983C99.6917 16.4983 99.4317 16.4117 99.2451 16.2383C99.0584 16.0517 98.9651 15.805 98.9651 15.4983C98.9651 15.1783 99.0584 14.9383 99.2451 14.7783C99.4317 14.605 99.6917 14.5183 100.025 14.5183C100.372 14.5183 100.632 14.605 100.805 14.7783C100.992 14.9383 101.085 15.1783 101.085 15.4983C101.085 15.805 100.992 16.0517 100.805 16.2383C100.632 16.4117 100.372 16.4983 100.025 16.4983ZM104.674 28.6983C104.407 28.6983 104.207 28.625 104.074 28.4783C103.94 28.3317 103.874 28.125 103.874 27.8583V19.5183C103.874 19.2517 103.94 19.0517 104.074 18.9183C104.207 18.7717 104.4 18.6983 104.654 18.6983C104.907 18.6983 105.1 18.7717 105.234 18.9183C105.38 19.0517 105.454 19.2517 105.454 19.5183V21.2383L105.234 20.9983C105.514 20.225 105.967 19.645 106.594 19.2583C107.234 18.8583 107.967 18.6583 108.794 18.6583C109.567 18.6583 110.207 18.7983 110.714 19.0783C111.234 19.3583 111.62 19.785 111.874 20.3583C112.127 20.9183 112.254 21.6317 112.254 22.4983V27.8583C112.254 28.125 112.18 28.3317 112.034 28.4783C111.9 28.625 111.707 28.6983 111.454 28.6983C111.187 28.6983 110.98 28.625 110.834 28.4783C110.7 28.3317 110.634 28.125 110.634 27.8583V22.5983C110.634 21.6917 110.454 21.0317 110.094 20.6183C109.747 20.1917 109.187 19.9783 108.414 19.9783C107.52 19.9783 106.807 20.2583 106.274 20.8183C105.754 21.365 105.494 22.0983 105.494 23.0183V27.8583C105.494 28.4183 105.22 28.6983 104.674 28.6983ZM116.041 28.6583C115.774 28.6583 115.574 28.585 115.441 28.4383C115.307 28.2783 115.241 28.0583 115.241 27.7783V19.5983C115.241 19.3183 115.307 19.105 115.441 18.9583C115.574 18.8117 115.774 18.7383 116.041 18.7383C116.294 18.7383 116.494 18.8117 116.641 18.9583C116.787 19.105 116.861 19.3183 116.861 19.5983V27.7783C116.861 28.0583 116.787 28.2783 116.641 28.4383C116.507 28.585 116.307 28.6583 116.041 28.6583ZM116.041 16.4983C115.707 16.4983 115.447 16.4117 115.261 16.2383C115.074 16.0517 114.981 15.805 114.981 15.4983C114.981 15.1783 115.074 14.9383 115.261 14.7783C115.447 14.605 115.707 14.5183 116.041 14.5183C116.387 14.5183 116.647 14.605 116.821 14.7783C117.007 14.9383 117.101 15.1783 117.101 15.4983C117.101 15.805 117.007 16.0517 116.821 16.2383C116.647 16.4117 116.387 16.4983 116.041 16.4983ZM123.929 28.7383C122.982 28.7383 122.162 28.5317 121.469 28.1183C120.776 27.705 120.236 27.125 119.849 26.3783C119.476 25.6183 119.289 24.725 119.289 23.6983C119.289 22.925 119.396 22.2317 119.609 21.6183C119.822 20.9917 120.136 20.4583 120.549 20.0183C120.962 19.5783 121.449 19.245 122.009 19.0183C122.582 18.7783 123.222 18.6583 123.929 18.6583C124.876 18.6583 125.696 18.865 126.389 19.2783C127.082 19.6917 127.616 20.2783 127.989 21.0383C128.376 21.785 128.569 22.6717 128.569 23.6983C128.569 24.4717 128.462 25.165 128.249 25.7783C128.036 26.3917 127.722 26.925 127.309 27.3783C126.896 27.8183 126.402 28.1583 125.829 28.3983C125.269 28.625 124.636 28.7383 123.929 28.7383ZM123.929 27.4383C124.529 27.4383 125.056 27.2917 125.509 26.9983C125.962 26.705 126.309 26.2783 126.549 25.7183C126.802 25.1583 126.929 24.485 126.929 23.6983C126.929 22.485 126.656 21.5583 126.109 20.9183C125.576 20.2783 124.849 19.9583 123.929 19.9583C123.316 19.9583 122.782 20.105 122.329 20.3983C121.889 20.6783 121.542 21.0983 121.289 21.6583C121.049 22.205 120.929 22.885 120.929 23.6983C120.929 24.8983 121.202 25.825 121.749 26.4783C122.296 27.1183 123.022 27.4383 123.929 27.4383Z" fill="#3F3E3B"/>
</svg>
