<svg width="49" height="49" viewBox="0 0 49 49" fill="none" xmlns="http://www.w3.org/2000/svg">
<path d="M4.34106 23.1167C4.34106 16.5417 4.34106 13.2543 6.15698 11.0416C6.48942 10.6365 6.86084 10.2651 7.26592 9.93262C9.47862 8.1167 12.7661 8.1167 19.3411 8.1167C25.9161 8.1167 29.2035 8.1167 31.4163 9.93262C31.8213 10.2651 32.1927 10.6365 32.5251 11.0416C34.3411 13.2543 34.3411 16.5417 34.3411 23.1167V25.1167C34.3411 31.6917 34.3411 34.9791 32.5251 37.1919C32.1927 37.5969 31.8213 37.9683 31.4163 38.3007C29.2035 40.1167 25.9161 40.1167 19.3411 40.1167C12.7661 40.1167 9.47862 40.1167 7.26592 38.3007C6.86084 37.9683 6.48942 37.5969 6.15698 37.1919C4.34106 34.9791 4.34106 31.6917 4.34106 25.1167V23.1167Z" stroke="#FF5C49" stroke-width="3"/>
<path d="M34.3411 19.1171L35.6579 18.4587C39.5495 16.5128 41.4955 15.5399 42.9183 16.4192C44.3411 17.2986 44.3411 19.4741 44.3411 23.8253V24.4089C44.3411 28.7601 44.3411 30.9355 42.9183 31.8149C41.4955 32.6943 39.5495 31.7213 35.6579 29.7755L34.3411 29.1171V19.1171Z" stroke="#FF5C49" stroke-width="3"/>
</svg>
