<svg width="49" height="49" viewBox="0 0 49 49" fill="none" xmlns="http://www.w3.org/2000/svg">
<path d="M39.7823 14.1167C40.2397 11.5072 38.2315 9.1167 35.5823 9.1167H13.7347C11.0854 9.1167 9.07738 11.5072 9.53462 14.1167" stroke="#FF5C49" stroke-width="3"/>
<path d="M35.6587 9.1167C35.7155 8.59854 35.7439 8.3394 35.7443 8.1254C35.7489 6.07814 34.2067 4.35798 32.1711 4.13954C31.9583 4.1167 31.6977 4.1167 31.1765 4.1167H18.1409C17.6196 4.1167 17.359 4.1167 17.1462 4.13954C15.1106 4.35798 13.5685 6.07814 13.573 8.12538C13.5735 8.3394 13.6018 8.5985 13.6586 9.1167" stroke="#FF5C49" stroke-width="3"/>
<path d="M29.8213 27.3485C30.9381 28.0409 30.9381 29.8331 29.8213 30.5255L23.0781 34.7057C21.9927 35.3785 20.6589 34.5029 20.6589 33.1173V24.7567C20.6589 23.3713 21.9927 22.4955 23.0781 23.1683L29.8213 27.3485Z" stroke="#FF5C49" stroke-width="3"/>
<path d="M5.42596 27.7027C4.5339 21.3755 4.08788 18.212 5.98358 16.1644C7.87928 14.1167 11.2541 14.1167 18.0037 14.1167H31.3141C38.0637 14.1167 41.4385 14.1167 43.3343 16.1644C45.2299 18.212 44.7839 21.3755 43.8919 27.7027L43.0459 33.7027C42.3463 38.6645 41.9967 41.1453 40.2023 42.6311C38.4079 44.1167 35.7613 44.1167 30.4681 44.1167H18.8497C13.5566 44.1167 10.91 44.1167 9.11562 42.6311C7.32124 41.1453 6.97146 38.6645 6.2719 33.7027L5.42596 27.7027Z" stroke="#FF5C49" stroke-width="3"/>
</svg>
